PathFileType	4	(X/Y/Z)	/Users/visionmauri/Downloads/Videos/OAW04-top_Sports2D/OAW04-top_Sports2D_m_person00.trc
DataRate	CameraRate	NumFrames	NumMarkers	Units	OrigDataRate	OrigDataStartFrame	OrigNumFrames
30.0	30.0	7	22	m	30.0	591	2367
Frame#	Time	Hip			RHip			RKnee			RAnkle			RBigToe			RSmallToe			RHeel			LHip			LKnee			LAnkle			LBigToe			LSmallToe			LHeel			Neck			Head			Nose			RShoulder			RElbow			RWrist			LShoulder			LElbow			LWrist			
		X1	Y1	Z1	X2	Y2	Z2	X3	Y3	Z3	X4	Y4	Z4	X5	Y5	Z5	X6	Y6	Z6	X7	Y7	Z7	X8	Y8	Z8	X9	Y9	Z9	X10	Y10	Z10	X11	Y11	Z11	X12	Y12	Z12	X13	Y13	Z13	X14	Y14	Z14	X15	Y15	Z15	X16	Y16	Z16	X17	Y17	Z17	X18	Y18	Z18	X19	Y19	Z19	X20	Y20	Z20	X21	Y21	Z21	X22	Y22	Z22
591	19.708326289095524	8.162275374816165	-0.06118425251858252	0.0301	8.113696389310341	0.03450827095935435	0.0301	7.7289878873657045	-0.07173306394969614	0.129	7.30652954512591	-0.1752220174163447	0.023	7.170972819980724	-0.16936545180358134	0.2179	7.176232647897914	-0.12969898708346114	0.1804	7.244142344992332	-0.20235766032556862	-0.0119	8.169573558133772	-0.16649196428481156	0.0301	7.793460189635742	-0.24540816864290016	0.129	7.459869663829395	-0.2818564512193737	0.023	7.326884812518205	-0.3343491978641947	0.2179	7.359791954505126	-0.3759795842954779	0.1804	7.415351032078513	-0.2760627933845395	-0.0119	8.748290259815747	0.11940017676751657	0.0008	9.016183903814778	0.21856435430582355	0.0655	8.775736074752956	0.15326774935504062	0.1076	8.622448628702603	0.2996903457163158	-0.01275	8.31127764141972	0.270238018378073	0.0702	8.033367090794712	0.21425077458851516	0.1076	8.740993948934037	-0.11197144539936492	-0.01275	8.4666082523638	-0.2790794713507961	0.0702	8.193486004944445	-0.34570600008440155	0.1076
592	19.741673710904482	8.140579558865467	-0.06577485626262847	0.0301	8.090899680099895	0.0317660829948168	0.0301	7.697473004690378	-0.08067197078429035	0.129	7.250897053113708	-0.19283784334106865	0.023	7.131522528527806	-0.1821094392158516	0.2179	7.135743818423661	-0.14353878282157995	0.1804	7.182821367019477	-0.21908397966535734	-0.0119	8.148624173536685	-0.17287275899678897	0.0301	7.775259132959028	-0.2505201923754188	0.129	7.45489678512175	-0.28424698862028175	0.023	7.322342427643374	-0.33548530111763664	0.2179	7.358932927559291	-0.37572340153888434	0.1804	7.411558216699305	-0.2760898898743654	-0.0119	8.725526619837582	0.11349187753563215	0.0008	8.989771033230445	0.21087205975208864	0.0655	8.750198401385445	0.14402064605268175	0.1076	8.603663155930942	0.2976313742118281	-0.01275	8.301718021800257	0.26823272617370914	0.0702	8.030380381745609	0.22050853589172908	0.1076	8.721887143015412	-0.1187137749399788	-0.01275	8.444917465021536	-0.28011965395342175	0.0702	8.177188145192373	-0.3431603575844822	0.1076
593	19.775021132713444	8.118336433722313	-0.06889119674151274	0.0301	8.068206714375908	0.029568412019442686	0.0301	7.671230652318212	-0.08861773346086294	0.129	7.211530882098665	-0.20747578806624153	0.023	7.095849631387909	-0.20458994939814598	0.2179	7.098845941249416	-0.16341632403205042	0.1804	7.141446215986537	-0.2322121432281441	-0.0119	8.12821069732972	-0.17816698660884756	0.0301	7.763790203698937	-0.25423581869005546	0.129	7.453827699659096	-0.28827151281707514	0.023	7.319723259693743	-0.3371531583919028	0.2179	7.359482583009534	-0.3758117227625016	0.1804	7.413809900148548	-0.2761344678430138	-0.0119	8.70134430432705	0.1075035454134495	0.0008	8.956263713610472	0.199933377904651	0.0655	8.718787727869564	0.13333748917564012	0.1076	8.585398373738636	0.29526726841080303	-0.01275	8.295263102700627	0.2703343860642675	0.0702	8.02889152313755	0.2266293132449436	0.1076	8.703284735153813	-0.12453184894084554	-0.01275	8.426366739541878	-0.28010706515579453	0.0702	8.167834970293919	-0.33971386272931886	0.1076
594	19.808368554522403	8.09594577017218	-0.07149797991148565	0.0301	8.047219329092073	0.02784564750395377	0.0301	7.647689408612186	-0.09628338011715983	0.129	7.174671193997323	-0.2216289532736476	0.023	7.04827441731425	-0.23363638096672262	0.2179	7.048989275697123	-0.18795902846036014	0.1804	7.106758935163038	-0.24608841615003013	-0.0119	8.108274628145107	-0.18142687398244767	0.0301	7.754302491299843	-0.2564609789874729	0.129	7.455290550808014	-0.2915502923016267	0.023	7.319536134074748	-0.33924175715947313	0.2179	7.360079027530223	-0.3758175285241132	0.1804	7.420936770650444	-0.2764483271627565	-0.0119	8.679324567034945	0.1026924269904833	0.0008	8.928388764302005	0.1956933161712588	0.0655	8.693921550721551	0.12809685519863975	0.1076	8.567408838457338	0.2946527891316755	-0.01275	8.28866256400103	0.2750282090126894	0.0702	8.027032407243565	0.23191814999841512	0.1076	8.687601648188823	-0.12819678058855827	-0.01275	8.411486036463714	-0.2805969889630378	0.0702	8.161605293453128	-0.33462684641952956	0.1076
595	19.841715976331365	8.073873241730217	-0.07356677321616141	0.0301	8.029903186744999	0.02872553994238059	0.0301	7.6261738759808235	-0.10224441221123172	0.129	7.1382126950148095	-0.23390992284537868	0.023	6.992778164309504	-0.26009038993676753	0.2179	6.990720911055908	-0.20783888332682432	0.1804	7.076530351018721	-0.2608132604520983	-0.0119	8.090772022479367	-0.1822282279661314	0.0301	7.743576181325508	-0.2590576755459619	0.129	7.458345061820502	-0.29256674679622124	0.023	7.319953184237227	-0.3405353173800701	0.2179	7.359760854296823	-0.375057292741524	0.1804	7.429722429746873	-0.275661115843194	-0.0119	8.65960064029858	0.0997371801127306	0.0008	8.912043164730008	0.20403276620186048	0.0655	8.68112471452592	0.13287331417646336	0.1076	8.550399446390694	0.2969831568603217	-0.01275	8.278774356986364	0.2789347093117982	0.0702	8.02466645302042	0.23784322416317952	0.1076	8.67475009404625	-0.12929911749717746	-0.01275	8.399547821863075	-0.28174117240193985	0.0702	8.154211252159953	-0.3290084033274023	0.1076
596	19.875063398140323	8.056594669124294	-0.07242918442263811	0.0301	8.01751585707999	0.03380999594474149	0.0301	7.607701843155709	-0.10348933383416038	0.129	7.1103249618616005	-0.24166606233265883	0.023	6.9489623239761675	-0.2764976544535318	0.2179	6.944637107815223	-0.21761354773160743	0.1804	7.0569285897336425	-0.27196437816986624	-0.0119	8.078095281289853	-0.18144800093154173	0.0301	7.732211563602597	-0.26441801325065345	0.129	7.462425890825263	-0.29228232497787954	0.023	7.31895395791799	-0.3399217172283022	0.2179	7.359301978714251	-0.3733502236970359	0.1804	7.438614863736566	-0.27363024015004445	-0.0119	8.643354585024904	0.1002759997945069	0.0008	8.90271433815528	0.21805567288577746	0.0655	8.674658504776875	0.14276731881912563	0.1076	8.537894614533409	0.3023244942722628	-0.01275	8.267407292652624	0.28198410652395506	0.0702	8.021017099756202	0.2456043591049387	0.1076	8.66472114849681	-0.1278460058509693	-0.01275	8.389281213122228	-0.28302584657991303	0.0702	8.142916975109054	-0.32590247630725255	0.1076
597	19.908410819949285	8.046967751447555	-0.0674013222676016	0.0301	8.008445667820071	0.04095268103612366	0.0301	7.5930831061147686	-0.09971574116747703	0.129	7.095904493696619	-0.24518809589969381	0.023	6.928586870857175	-0.28238452963789584	0.2179	6.923136221252212	-0.2193851717650099	0.1804	7.048735774507899	-0.2783041236656415	-0.0119	8.06979248005501	-0.18005372569089567	0.0301	7.720200471287594	-0.2729328473228263	0.129	7.467599775975056	-0.29305482137255245	0.023	7.318489949647372	-0.3388300106639885	0.2179	7.361253985808021	-0.3724348458837094	0.1804	7.4472318854627035	-0.27323805319498007	-0.0119	8.631350162193687	0.10378853565343084	0.0008	8.895077113237805	0.22628190078723573	0.0655	8.666283302893559	0.1472203842613393	0.1076	8.531443085137386	0.30980387006766263	-0.01275	8.256654983966069	0.28635052915800124	0.0702	8.012128361137924	0.2536775763518637	0.1076	8.65761952754249	-0.1250086762644012	-0.01275	8.379114323012578	-0.28504434450603927	0.0702	8.12697266416949	-0.32670670895243414	0.1076
